<?xml version="1.0" encoding="UTF-8" standalone="no"?>
<!-- Created with Inkscape (http://www.inkscape.org/) -->

<svg
   xmlns:dc="http://purl.org/dc/elements/1.1/"
   xmlns:cc="http://creativecommons.org/ns#"
   xmlns:rdf="http://www.w3.org/1999/02/22-rdf-syntax-ns#"
   xmlns:svg="http://www.w3.org/2000/svg"
   xmlns="http://www.w3.org/2000/svg"
   xmlns:sodipodi="http://sodipodi.sourceforge.net/DTD/sodipodi-0.dtd"
   xmlns:inkscape="http://www.inkscape.org/namespaces/inkscape"
   id="svg2"
   sodipodi:docname="nuke.svg"
   viewBox="0 0 455.67 548.46"
   version="1.1"
   inkscape:version="0.92.3 (2405546, 2018-03-11)"
   inkscape:export-filename="C:\Users\isote\ohj1\harjoitustyö\morte\Content\loot\Sieni\sprite.png"
   inkscape:export-xdpi="10.061341"
   inkscape:export-ydpi="10.061341">
  <title
     id="title3986">nuclear explosion</title>
  <defs
     id="defs4">
    <linearGradient
       id="linearGradient3115"
       y2="589.61"
       gradientUnits="userSpaceOnUse"
       x2="376.84"
       y1="364.18"
       x1="380.24"
       inkscape:collect="always">
      <stop
         id="stop3111"
         style="stop-color:#ff6600"
         offset="0" />
      <stop
         id="stop3950"
         style="stop-color:#a02c2c"
         offset=".36155" />
      <stop
         id="stop3113"
         style="stop-color:#4f3131"
         offset="1" />
    </linearGradient>
    <linearGradient
       id="linearGradient3131"
       y2="196.6"
       gradientUnits="userSpaceOnUse"
       x2="403.21"
       y1="374.39"
       x1="399.81"
       inkscape:collect="always">
      <stop
         id="stop3127"
         style="stop-color:#5c4141"
         offset="0" />
      <stop
         id="stop3129"
         style="stop-color:#c83737"
         offset="1" />
    </linearGradient>
    <radialGradient
       id="radialGradient3946"
       gradientUnits="userSpaceOnUse"
       cy="385.37"
       cx="352.12"
       gradientTransform="matrix(-1.3508 .27624 -.19096 -.93387 949.9 496.65)"
       r="209.45"
       inkscape:collect="always">
      <stop
         id="stop3942"
         style="stop-color:#ff7f2a"
         offset="0" />
      <stop
         id="stop3944"
         style="stop-color:#c83737;stop-opacity:0"
         offset="1" />
    </radialGradient>
    <radialGradient
       id="radialGradient3970"
       gradientUnits="userSpaceOnUse"
       cy="118.78"
       cx="407.59"
       gradientTransform="matrix(-1.3195 .12421 -.070393 -.74774 928.1 215.23)"
       r="184.12"
       inkscape:collect="always">
      <stop
         id="stop3974"
         style="stop-color:#ffe680"
         offset="0" />
      <stop
         id="stop3978"
         style="stop-color:#ffcc00;stop-opacity:.76623"
         offset=".58698" />
      <stop
         id="stop3980"
         style="stop-color:#ff7f2a;stop-opacity:0"
         offset="1" />
    </radialGradient>
    <linearGradient
       id="linearGradient3984"
       y2="496.89"
       gradientUnits="userSpaceOnUse"
       x2="347.92"
       y1="479.87"
       x1="347.07"
       inkscape:collect="always">
      <stop
         id="stop3143"
         style="stop-color:#ffcc00"
         offset="0" />
      <stop
         id="stop3145"
         style="stop-color:#ff6600"
         offset="1" />
    </linearGradient>
  </defs>
  <sodipodi:namedview
     id="base"
     bordercolor="#666666"
     inkscape:pageshadow="2"
     inkscape:window-y="-8"
     fit-margin-left="0"
     pagecolor="#ffffff"
     inkscape:window-height="1057"
     inkscape:window-maximized="1"
     inkscape:zoom="1.1755664"
     inkscape:window-x="-8"
     showgrid="false"
     borderopacity="1.0"
     inkscape:current-layer="layer2"
     inkscape:cx="263.99813"
     inkscape:cy="166.26393"
     fit-margin-top="0"
     fit-margin-right="0"
     fit-margin-bottom="0"
     inkscape:window-width="1920"
     inkscape:pageopacity="0.0"
     inkscape:document-units="px" />
  <g
     id="layer2"
     inkscape:label="Réteg"
     inkscape:groupmode="layer"
     transform="translate(-158.37 -135.46)">
    <path
       id="path3084"
       style="color:#000000;fill:#000000"
       inkscape:connector-curvature="0"
       d="m 400,135.5 c -11.594,1.4332 -22.471,6.0888 -34.336,5.836 -5.4499,-0.0657 -11.464,2.8268 -15.977,-1.1798 -10.345,-5.0389 -21.661,-0.041 -30.969,4.6875 -13.47,-0.0179 -27.546,-0.64387 -40,5.4375 -8.2861,2.803 -16.849,4.178 -25.125,6.6875 -7.6923,3.1874 -12.856,10.349 -21.031,12.469 -15.509,8.2916 -29.392,19.793 -40.5,33.375 -8.6669,10.869 -21.408,19.365 -25.765,33.277 -4.7068,11.495 -6.4244,24.877 -1.641,36.66 -2.6384,8.3556 -10.211,18.087 -3.7188,26.719 2.7219,4.0939 8.9738,7.2936 6.3438,13.094 -4.5978,10.902 -6.985,23.234 -2.9688,34.719 1.573,9.7608 11.155,16.08 20.749,15.165 6.0368,-1.246 5.5895,7.0042 7.6883,10.585 1.78,7.4486 7.9378,12.968 15.459,14.221 4.9246,1.4464 10.12,2.2919 15.041,3.3732 6.6116,10.238 20.083,13.12 31.312,9.9375 4.1472,-1.0596 7.976,2.402 12.312,1.9688 3.7825,-0.70428 5.8604,1.8292 8.625,3.8125 9.3236,5.7791 22.263,4.5628 30.344,-2.5312 7.6056,4.2306 16.451,-0.0546 22.281,-5.3125 4.0446,3.0029 9.207,1.0352 13.219,0.15625 2.2755,2.6394 0.54194,8.5623 1.315,12.405 0.4621,16.13 1.6066,32.31 -0.90871,48.314 -1.274,3.2685 0.86591,10.684 -2.125,11.875 -4.8917,-0.56541 -9.4726,2.5755 -13.906,3.3125 -11.434,-3.8678 -23.062,-13.089 -35.656,-7.9688 -5.1347,0.26766 -11.174,-0.18929 -14.812,4.4062 -1.4313,3.1382 -3.9693,3.1548 -7.0312,3.125 -5.1828,-0.21864 -7.706,5.4202 -12.812,4.7188 -10.175,1.0806 -18.666,14.723 -10.406,22.938 3.749,3.1195 8.9106,2.7751 12.938,5.5 5.1219,2.1268 10.836,-0.12752 15.188,-2.125 5.5876,3.9681 13.572,2.3629 19,0.5 6.6482,6.749 17.525,6.9044 24.938,1.3125 4.1941,2.8736 9.9288,1.9594 14.219,1.7188 1.9393,2.2196 7.99945,4.27716 5.88185,8.45816 -6.72236,41.36091 -13.5843,82.69386 -20.88618,123.95555 l 118.77415,-0.14942 c -1.8622,-43.00503 -7.89617,-86.08214 -8.26992,-128.85804 4.4792,-0.58836 8.1049,-3.7095 11.219,-6.5312 5.5234,0.22986 9.6119,5.2916 15.281,5.6562 6.2436,1.7621 12.233,-1.4721 17.875,-3.4062 11.014,1.5945 24.756,4.2983 33.531,-4.3438 6.282,-6.3851 3.507,-19.003 -5.875,-20.469 -0.6628,-5.3379 -5.9557,-8.247 -10.062,-9.9062 -2.3458,-5.8741 -8.9346,-8.0182 -14.688,-8.2188 -7.5852,-5.1756 -18.521,-6.4426 -25.5,0.46875 -2.8249,2.4428 -5.0096,5.5708 -9.0938,4.2188 -3.5766,0.0398 -6.8581,1.4388 -9.5312,-1.5938 -3.6795,-0.65741 -4.6652,-2.6316 -3.8393,-6.3119 1.6294,-20.624 -0.13869,-43.299 0.96431,-62.594 6.8912,5.0422 16.854,7.0655 24.469,2.375 4.3088,2.7827 9.9917,1.79 14.188,-0.78125 13.348,3.6446 28.994,9.1636 42.094,1.9375 3.8285,-2.3326 6.5852,-6.0643 8.375,-10.125 8.419,6.512 22.33,9.5683 30.062,0.375 2.423,-2.7788 3.8894,-6.2937 4.4688,-9.9062 13.96,-1.0068 30.745,-7.074 34.219,-22.344 1.402,-6.1369 0.61728,-12.511 -0.78125,-18.562 10.518,-4.2637 21.677,-13.714 19.656,-26.312 -0.31322,-5.7251 -4.5066,-10.711 -6.4375,-15.375 2.2127,-2.893 -0.66638,-7.7564 4.125,-8.3438 10.944,-5.1749 15.274,-19.017 10.812,-29.969 -4.7362,-13.979 -15.677,-25.034 -26.719,-34.062 -7.0708,-18.357 -21.251,-33.516 -37.25,-44.594 -3.5983,-1.8057 -6.9382,-3.5161 -8.5625,-7.4688 -8.183,-12.084 -22.766,-19.379 -37.406,-17.971 -5.6735,-0.004 -11.672,1.8758 -16.532,-2.0919 -9.1656,-4.7917 -19.093,-9.2351 -29.719,-7.7188 -11.874,-0.0696 -23.976,-1.9329 -35.188,-5.7812 -6.7,-2.87 -13.38,-7.42 -20.95,-6.9 z"
       sodipodi:nodetypes="cccccccccccccccccccccccccccccccccccccccccccccccccccccccccccccccccccccccccc" />
    <path
       id="path3035"
       sodipodi:nodetypes="cssccsscc"
       style="color:#000000;fill:url(#linearGradient3115)"
       inkscape:connector-curvature="0"
       d="m 349.45,365.59 c 0,0 3.3071,77.166 2.2047,81.575 -1.1024,4.4095 -4.848,57.236 -6.6142,67.245 -3.3071,18.74 -18.56702,118.88402 -18.56702,118.88402 l 100.14402,0.17358 c 0,0 -7.7166,-89.292 -7.7166,-95.906 0,-6.6142 -2.2047,-73.859 -1.1024,-79.371 1.1024,-5.5118 0,-91.497 0,-91.497 z" />
    <path
       id="path3069"
       sodipodi:nodetypes="ccssscccc"
       style="color:#000000;fill:#501616"
       inkscape:connector-curvature="0"
       d="m346.54 492.75c-0.0809 0.45859-0.68786 19.653-1.8475 23.717 3.9904-0.68973 6.1187-4.7876 12.333-2.1562 4.1599 1.7614 7.225-0.51582 14.011 0.78125 8.6478 1.653 4.6985 2.0678 15.74-0.64326 9.6622-2.3724 14.062 1.0913 19.296-2.709 7.419-2.7842 11.806-0.89372 12.37 6.2585-0.35242-13.632-1.3819-18.849-1.5078-31.698z" />
    <path
       id="path3037"
       sodipodi:nodetypes="ssssasssssssssssssssscssssssssscscsssssssssss"
       style="color:#000000;fill:#924848"
       inkscape:connector-curvature="0"
       d="m345.32 481.61c-5.0442-2.3812-7.441-3.0315-16.26 1.378-3.049 1.5245-9.0946-1.6536-11.85-2.4803-2.7559-0.82677-15.158-9.0946-22.874-6.3386-7.7166 2.7559-8.072-0.0552-11.575 1.6536-2.978 1.4527-4.1339 7.1654-7.1654 6.8898-3.0315-0.27559-8.5434-0.82677-9.3702 1.378-0.82677 2.2047-3.8813 2.6586-8.5434 3.0315-6.8898 0.55118-10.197 8.819-4.9607 9.0946 5.8056 0.30556 8.5434 6.8898 16.536 0.82678 2.6801-2.0332 5.7874-5.5118 6.3386-3.5827 0.55118 1.9292 0.95721 5.1194 4.6851 5.5118 10.473 1.1024 7.7166-5.2362 10.748-5.2362 3.0315 0 6.0345 7.6617 13.228 8.819 4.6496 0.74796 10.197-4.9607 13.228-4.9607 3.0315 0 2.34 2.8238 7.9922 3.0315 5.2454 0.19279 3.0315-4.1339 5.5118-3.8583s4.1752 8.848 15.433 7.1654c6.5984-0.98617 6.3386-7.441 11.575-7.1654 5.2363 0.2756 6.6142-0.27559 12.677 2.2047 6.063 2.4803 19.291 1.6536 21.221 0.55119 1.9292-1.1024 9.3701-1.9292 9.3701-1.9292s0.82678 3.3071 4.9607 3.0315c4.1339-0.27559 7.441-4.9607 9.3701-4.4095 1.9292 0.55118 4.9607 8.2678 9.9213 7.441 4.9607-0.82678 6.8898-6.6142 10.197-6.6142 3.3071 0 6.8898 0 9.6457 1.6536s8.5434 4.9607 13.228 4.4095c4.6851-0.55118 8.5434-4.1339 12.677-3.8583 4.1339 0.27559 14.331 3.3071 23.977 0.55118 4.8356-1.3816 6.1636-8.0306 1.378-8.5434-7.7166-0.82678-9.3701 2.4803-9.3701 2.4803s8.5434-12.126-1.9292-11.85c-5.0274 0.1323-4.9607 0.82677-4.9607 0.82677s4.9607-9.6457-6.8898-9.0946c-3.0282 0.14085-10.473-7.441-16.811-3.5827-6.3386 3.8583-11.53 11.567-11.85 9.9213-0.5765-2.9556-12.101-2.28-14.331 0.82678-0.66256 0.92314-2.4347-7.633-8.5434-5.5118-9.1418 3.1743-8.2678 8.5434-9.9213 8.5434-1.6536 0-1.1426-4.7488-6.6142-3.0315-6.5335 2.0505-8.2678 6.8898-11.575 6.8898-3.3071 0-9.3702-4.4095-11.85-6.3386-2.4803-1.9292-14.882-5.5118-24.252 0.27559-9.3702 5.7874-9.5662 1.3385-12.402 0z" />
    <path
       id="path3041"
       sodipodi:nodetypes="csassssascsscscccccccccccccccsssssssscsssssc"
       style="color:#000000;fill:url(#linearGradient3131)"
       inkscape:connector-curvature="0"
       d="m243.2 174.65c-15.59 3.118-42.872 29.621-44.431 33.518-1.559 3.8975-18.853 16.761-23.385 28.062-4.2654 10.636-7.7949 21.826-2.3385 34.298 1.9005 4.3439-6.236 16.369-6.236 21.046s8.7191 8.3704 9.3539 15.59c1.1642 13.241-10.133 17.928-3.118 39.754 3.6332 11.303 15.496 4.0501 21.046 9.3539 5.4607 5.2181 6.236 17.149 10.133 20.267 3.8975 3.118 24.164 6.2359 24.164 6.2359s3.8975 8.5744 12.472 10.133c8.5744 1.559 17.149-3.118 19.487-0.7795 2.3385 2.3385 15.59 2.3385 15.59 2.3385s1.559 6.236 12.472 7.0154c10.913 0.7795 16.369-10.133 16.369-10.133 4.2014 5.3683 8.2725 10.997 22.605-3.8975 3.802 1.8719 6.754 8.8438 12.472-0.77949 3.0353 10.001 27.441 0.9123 21.826-12.472 10.944 19.946 41.03 7.0531 42.872 2.3385 1.8276 10.443 10.192 9.4456 20.267 5.4564-0.757 7.1597 20.458 23.869 28.062 4.677 3.1143 2.4988-0.65407 13.257 11.692 4.677 35.894 11.878 41.186 4.6299 44.431-3.8975l3.118-9.3539c27.45 26.445 33.612 2.0803 28.841-3.118 49.231-0.89506 34.194-28.109 33.518-38.195 20.863-7.7664 29.19-17.241 10.913-36.636 6.0054-2.9653 6.9548-6.6529-1.559-11.692 43.602-5.6089 10.499-45.457-5.4564-54.565-3.118-16.369-27.282-41.313-39.754-45.99-4.1287-1.5483-5.4564-12.472-21.046-19.487-8.5891-3.8651-24.944-0.7795-28.062-1.559-3.118-0.77949-17.928-9.3539-24.164-10.133-6.236-0.7795-10.133 0.77949-21.826-0.7795-11.692-1.559-21.046-3.8975-23.385-4.677-2.3385-0.77949-10.913-5.4564-16.369-7.0154-5.4564-1.559-17.928 3.8975-27.282 4.677-9.3539 0.7795-26.503 2.3385-26.503 2.3385s-2.3385-4.677-10.133-4.677c-7.7949 0-13.251 4.677-17.928 6.236s-10.133 0-21.826 0.77949c-11.692 0.7795-14.81 3.8975-21.046 5.4565-6.2359 1.559-12.472 3.8975-18.708 4.677-6.2359 0.77949-17.149 10.913-17.149 10.913z" />
    <path
       id="path3062"
       sodipodi:nodetypes="cscsccsccccccccccccccscsssccscscssssscscscsssc"
       style="color:#000000;fill:url(#radialGradient3946)"
       inkscape:connector-curvature="0"
       d="m187.86 224.54s-16.369 14.81-12.472 24.164c3.8975 9.3539 14.81 14.031 14.81 14.031s-12.472 7.0154-12.472 17.149c0 10.133 11.692 10.913 11.692 10.913l8.5744 5.4564s-14.81 10.913-6.236 20.267c8.5744 9.3539 17.928 17.928 29.621 8.5744-0.002 26.471 11.285 23.914 25.723 13.251 17.941 18.299 32.395 11.715 35.077-4.677 3.7326 25.228 25.521 19.407 22.605 4.677 8.6588 7.0802 16.793 8.9104 23.385-4.677-0.77734 24.507 20.438 14.804 37.416 11.692 22.389 14.656 30.294 6.0239 33.518-10.133 3.767 9.6805 7.6688 17.33 15.59 12.472 2.3385 6.2359 13.251 6.2359 11.692-6.236 11.892 27.263 39.236 13.228 40.534-0.7795l5.4565-7.0154c17.053 11.583 27.141-1.2634 31.959-13.251 2.0361 24.543 25.044 20.921 29.621 7.7949 11.642 3.068 18.93 1.7807 14.031-11.692 0 0 16.369 11.692 25.723 7.0154 9.3539-4.677-3.118-31.18-3.118-31.18s0.77949-3.8975 3.8975-6.236 17.149-2.3385 18.708-5.4564c1.559-3.118-0.77949-28.062-4.677-31.959-3.8975-3.8975-13.251-11.692-13.251-11.692l-3.118-7.0154s-7.7949-18.708-14.031-22.605c-6.2359-3.8975-22.605-14.81-22.605-14.81s-16.369-14.81-21.826-17.928c-5.4564-3.118-16.369-3.8975-16.369-3.8975s-12.062-0.95935-17.928-2.3385c-7.759-1.8239-12.472-9.3539-22.605-7.7949s-11.793-1.9717-17.928-3.118c-10.866-2.0302-29.621-7.0154-31.18-9.3539s-10.133-1.559-21.826 1.559c-11.692 3.118-35.077 4.677-35.077 4.677s1.559-4.677-10.133-3.8975c-11.692 0.77949-17.149 7.0154-17.149 7.0154s-26.503-1.559-33.518 0c-7.0154 1.559-33.518 14.81-33.518 14.81s-22.605 10.913-28.062 13.251c-5.4565 2.3385-12.472 10.913-17.149 14.81-4.677 3.8975-7.0154 14.031-10.913 17.928-3.8975 3.8975-12.472 6.236-12.472 6.236z" />
    <path
       id="path3076"
       style="color:#000000;fill:url(#linearGradient3984)"
       inkscape:connector-curvature="0"
       d="m459.62 470.19c-4.2602 0.23446-8.3574 6.4117-10.062 7.0938-1.9487 0.7795-3.4067 6.3433-7 2.75-2.7282-2.7282-9.7644 0.19453-12.688 3.3125 0 0-0.94804-6.829-5.625-7.2188-4.677-0.38975-8.5938 3.9062-8.5938 3.9062s-1.3473 5.25-2.9062 5.25c-1.559 0-1.9463-4.2942-5.8438-3.125s-7.0218 0.98666-9.75 5.4688c0 0-5.1042 1.209-7.8125 0.59375-2.9899-0.6793-5.053-3.3308-7.7812-4.5s-5.7754-4.2812-9.75-4.2812c-6.8206 0-9.5418 1.566-14.219 3.125-4.677 1.559-8.757 3.1085-11.875 2.7188-3.118-0.38975-0.32449-3.6229-6.25-4.2812-7.0154-0.7795-7.1039 2.7209-11.5 2.7188-3.9853-0.002-7.4637-0.38664-12.281-2.3438-6.236-2.5334-11.492-7.0148-15-6.625-3.5077 0.38975-16.188 1.5625-16.188 1.5625-5.4565 3.5077-6.4062 7.5938-6.4062 7.5938s-7.5973-1.7282-9.1562 1c-1.559 2.7282 3.875 3.0938 3.875 3.0938l10.156-3.5625c-4.2594 10.786 7.3792 6.7698 11.281 3.9062 3.7652 5.9979 14.636 4.0413 14.812-2.3438 1.4104 6.1684 4.4405 6.9745 8.9688 2.75 3.541 4.5736 7.8969 3.4234 12.469 0.78125-0.92383 6.7096 14.399 9.5454 19.5 3.0938 9.3621 1.4175 16.44 0.79165 19.469-3.0938-0.0247 1.6915 3.2474 5.4781 8.6875 3.4375 1.5515 2.7806 14.443 1.9412 17.031 0.4375 7.8281 2.4506 18.198-1.9297 16-3.5 17.551 9.8407 14.942 2.8727 21.438 3.5l5.8438-1.9375c5.6643 5.5641 16.569 6.74 17.531-3.5 2.4918 6.9926 6.1228 7.7461 10.906 2.3125 3.0003 5.1599 11.459 4.9067 13.656 1.5625l6.2188-2.7188s4.6952-4.6103 1.1875-5c-3.5077-0.38975-9.375 0.375-9.375 0.375s2.743-7.0183-0.375-8.1875-6.6285-1.7518-8.1875-2.5312c-1.559-0.7795-6.3613-2.432-8.5625-3.3125-0.60898-0.24359-1.2352-0.31474-1.8438-0.28125zm-196.59 17.719c-0.10591 0.0109-0.22195 0.045-0.34375 0.0937-1.9487 0.7795-4.2812 1.5625-4.2812 1.5625-4.677 2.3385-3.1145 6.6197 1.5625 4.2812 4.3846-2.1923 4.6511-6.1002 3.0625-5.9375z" />
    <path
       id="path3930"
       sodipodi:nodetypes="cccccccccccccccccccccccccccccccccccccccc"
       style="color:#000000;fill:url(#radialGradient3970)"
       inkscape:connector-curvature="0"
       d="m226.27 194.05c-11.879 3.2396-17.321 8.9552-14.461 17.864-20.372 7.5691-8.2481 12.194-7.6559 17.864-1.9742 6.4201-8.909 16.147 5.1039 11.909-18.407 8.5936 0.80574 3.8588 1.7467 10.416-11.302 13.062-6.5263 29.906 18.714 22.968-0.12136 12.395 4.2015 7.0124 8.5065 1.7013-7.2405 11.997 9.5966 12.664 20.416 16.162 7.051 20.437 37.422 9.9068 43.383 2.552 13.692 4.4927 9.4519-4.1479 11.058-8.5065 11.64 15.474 32.243 6.7861 31.474-9.3572 8.6738-1.5777 19.39-0.97735 11.058-9.3572 18.064 8.2698 24.25 6.1341 21.093-3.7314 5.0179 9.8733 11.431 11.376 18.714 7.6559 1.6477 5.0547 0.89967 11.276 22.117 6.8052-7.0897 9.6562 1.4704 4.6632 11.059 5.9546 9.2425 25.894 12.607 4.4835 18.077 2.2601 4.1016 0.67373 9.9795 3.4198 7.6559-3.4026 12.284 10.103 24.512 24.745 30.563 5.2071 20.221 4.7574 21.368-0.62427 16.162-12.76 26.601 2.6296 32.544-11.465 26.637-21.515 8.1082 6.7953 15.422 7.6306 21.266-2.552 15.598 2.8788 16.118-6.4014 10.208-14.461 5.8615-6.6848 6.1863-9.4984-0.2919-17.305-2.6401-13.282-11.607-17.525-22.117-19.565-9.0518-18.213-11.147-12.077-16.162-16.162-7.8007-3.392-10.576-14.784-25.52-6.8052-1.8349-2.9093-1.6828-6.1122-12.76-7.6559-19.969-5.6707-25.937-3.8019-31.474-1.7013-0.53741-5.0299-3.6293-7.5824-11.909-5.1039-11.885-10.362-46.027-11.227-40.831-9.3572-15.657-7.0377-19.595 0.24638-25.52 5.1039-4.2045-6.9228-22.699-7.7472-17.864 0.85066-18.427-13.947-29.375 1.7111-24.669 7.6559-6.3556-13.098-22.935-10.731-24.669-2.552-4.8878-8.2372-13.082-8.0388-14.461 2.552-2.4808-4.991-19.819-4.3194-13.61 8.5065-5.6003-10.419-13.457-5.0472-21.266 0-11.052-0.0924-11.828 3.2405-9.3572 7.6559-15.404-1.7566-22.214 5.301-20.416 10.208z" />
  </g>
  <metadata
     id="metadata39">
    <rdf:RDF>
      <cc:Work>
        <dc:format>image/svg+xml</dc:format>
        <dc:type
           rdf:resource="http://purl.org/dc/dcmitype/StillImage" />
        <cc:license
           rdf:resource="http://creativecommons.org/publicdomain/zero/1.0/" />
        <dc:publisher>
          <cc:Agent
             rdf:about="http://openclipart.org/">
            <dc:title>Openclipart</dc:title>
          </cc:Agent>
        </dc:publisher>
        <dc:title>nuclear explosion</dc:title>
        <dc:date>2011-12-30T04:41:46</dc:date>
        <dc:description />
        <dc:source>https://openclipart.org/detail/166696/nuclear-explosion-by-tzunghaor</dc:source>
        <dc:creator>
          <cc:Agent>
            <dc:title>tzunghaor</dc:title>
          </cc:Agent>
        </dc:creator>
        <dc:subject>
          <rdf:Bag>
            <rdf:li>atomic bomb</rdf:li>
            <rdf:li>bomb</rdf:li>
            <rdf:li>explosion</rdf:li>
            <rdf:li>explosive</rdf:li>
            <rdf:li>mushroom cloud</rdf:li>
            <rdf:li>nuclear</rdf:li>
            <rdf:li>nuke</rdf:li>
            <rdf:li>weapon</rdf:li>
          </rdf:Bag>
        </dc:subject>
      </cc:Work>
      <cc:License
         rdf:about="http://creativecommons.org/licenses/publicdomain/">
        <cc:permits
           rdf:resource="http://creativecommons.org/ns#Reproduction" />
        <cc:permits
           rdf:resource="http://creativecommons.org/ns#Distribution" />
        <cc:permits
           rdf:resource="http://creativecommons.org/ns#DerivativeWorks" />
      </cc:License>
    </rdf:RDF>
  </metadata>
</svg>
